<svg width="207" height="202" viewBox="0 0 207 202" fill="none" xmlns="http://www.w3.org/2000/svg">
<path fill-rule="evenodd" clip-rule="evenodd" d="M103.44 1.17468C46.9979 1.17468 1.23614 46.9365 1.23614 103.395C1.23614 148.553 30.5204 186.863 71.1399 200.385C76.2524 201.32 78.1154 198.164 78.1154 195.451C78.1154 193.031 78.0303 186.6 77.9793 178.072C49.5456 184.247 43.5484 164.367 43.5484 164.367C38.8995 152.564 32.1962 149.421 32.1962 149.421C22.9154 143.075 32.898 143.203 32.898 143.203C43.1571 143.93 48.5546 153.738 48.5546 153.738C57.6738 169.356 72.4797 164.844 78.3025 162.232C79.234 155.627 81.8668 151.122 84.7931 148.566C62.0973 145.989 38.2317 137.214 38.2317 98.049C38.2317 86.8925 42.2171 77.7648 48.7545 70.6191C47.7039 68.0331 44.1949 57.6422 49.7541 43.5678C49.7541 43.5678 58.3373 40.8202 77.8644 54.0481C86.0181 51.781 94.763 50.6454 103.453 50.6071C112.134 50.6454 120.878 51.781 129.045 54.0481C148.559 40.8202 157.126 43.5678 157.126 43.5678C162.702 57.6422 159.193 68.0331 158.142 70.6191C164.692 77.7648 168.652 86.8925 168.652 98.049C168.652 137.316 144.748 145.954 121.976 148.485C125.651 151.641 128.917 157.877 128.917 167.417C128.917 181.079 128.794 192.103 128.794 195.451C128.794 198.19 130.631 201.371 135.82 200.372C176.406 186.825 205.665 148.541 205.665 103.395C205.665 46.9365 159.899 1.17468 103.44 1.17468" fill="#F1F1F1"/>
</svg>
