<svg width="200" height="200" viewBox="0 0 200 200" fill="none" xmlns="http://www.w3.org/2000/svg">
<path d="M181.25 25H18.75C8.39453 25 0 33.3945 0 43.75V156.25C0 166.605 8.39453 175 18.75 175H181.25C191.605 175 200 166.605 200 156.25V43.75C200 33.3945 191.605 25 181.25 25ZM181.25 43.75V59.6895C172.491 66.8219 158.528 77.9125 128.677 101.287C122.098 106.462 109.067 118.893 100 118.748C90.9344 118.895 77.8988 106.46 71.323 101.287C41.4766 77.916 27.5098 66.823 18.75 59.6895V43.75H181.25ZM18.75 156.25V83.7492C27.7008 90.8785 40.3941 100.883 59.7414 116.033C68.2793 122.754 83.2312 137.59 100 137.5C116.686 137.59 131.449 122.969 140.255 116.036C159.602 100.886 172.299 90.8793 181.25 83.7496V156.25H18.75Z" fill="#F1F1F1"/>
</svg>
