<svg width="439" height="439" viewBox="0 0 439 439" fill="none" xmlns="http://www.w3.org/2000/svg">
<g clip-path="url(#clip0)">
<path d="M414.41 24.123C398.333 8.042 378.963 0 356.315 0H82.2279C59.5799 0 40.2099 8.042 24.1259 24.123C8.04493 40.207 0.00292969 59.576 0.00292969 82.225V356.309C0.00292969 378.956 8.04493 398.327 24.1259 414.411C40.2099 430.495 59.5799 438.537 82.2279 438.537H356.312C378.96 438.537 398.33 430.495 414.407 414.411C430.491 398.327 438.533 378.957 438.533 356.309V82.225C438.532 59.576 430.49 40.204 414.41 24.123ZM133.618 367.157H67.6659V169.016H133.618V367.157ZM127.626 132.332C120.775 138.899 111.733 142.183 100.502 142.183H100.214C89.3659 142.183 80.5659 138.899 73.8069 132.332C67.0469 125.765 63.6689 117.629 63.6689 107.922C63.6689 98.025 67.1449 89.839 74.0899 83.366C81.0399 76.895 90.0319 73.658 101.07 73.658C112.109 73.658 120.96 76.895 127.623 83.366C134.284 89.839 137.711 98.025 137.9 107.922C137.899 117.625 134.477 125.761 127.626 132.332ZM370.873 367.157H304.921V261.237C304.921 231.358 293.885 216.414 271.805 216.414C263.431 216.414 256.385 218.745 250.677 223.409C244.962 228.07 240.681 233.733 237.83 240.4C236.495 243.822 235.831 249.15 235.831 256.381V367.156H169.879C170.45 247.627 170.45 181.577 169.879 169.014H235.831V196.988C249.698 175.307 269.389 164.444 294.932 164.444C317.772 164.444 336.142 171.964 350.036 186.998C363.931 202.035 370.877 224.212 370.877 253.517V367.157H370.873Z" fill="#F1F1F1"/>
</g>
<defs>
<clipPath id="clip0">
<rect width="438.536" height="438.536" fill="white"/>
</clipPath>
</defs>
</svg>
