<svg width="200" height="200" viewBox="0 0 200 200" fill="none" xmlns="http://www.w3.org/2000/svg">
<g clip-path="url(#clip0)">
<path d="M192.734 9.60944L152.109 0.234449C147.694 -0.781176 143.163 1.52351 141.366 5.66413L122.616 49.4141C120.976 53.2422 122.069 57.7344 125.312 60.3516L148.984 79.7266C134.921 109.688 110.351 134.609 79.7648 148.945L60.3898 125.273C57.7336 122.031 53.2804 120.937 49.4523 122.578L5.70231 141.328C1.52263 143.164 -0.78206 147.695 0.233565 152.109L9.60856 192.734C10.5851 196.953 14.3351 200 18.7492 200C118.788 200 199.999 118.945 199.999 18.7501C199.999 14.3751 196.991 10.586 192.734 9.60944Z" fill="#F1F1F1"/>
</g>
<defs>
<clipPath id="clip0">
<rect width="200" height="200" fill="white"/>
</clipPath>
</defs>
</svg>
